<svg
  width="52"
  height="43"
  viewBox="0 0 52 43"
  fill="none"
  xmlns="http://www.w3.org/2000/svg"
>
  <path
    d="M1.00135 7.17203V35.828C1.00135 36.5141 1.55047 37.0706 2.22746 37.0706H4.11574C5.0821 37.0706 5.86675 37.8644 5.86675 38.8451V40.7574C5.86675 41.4435 6.41589 42 7.09287 42H10.7739C11.4509 42 12 41.4435 12 40.7574V38.0936C12 37.4075 11.4509 36.851 10.7739 36.851H7.83311C6.86676 36.851 6.0821 36.0571 6.0821 35.0764V7.92222C6.0821 6.94288 6.86541 6.14768 7.83311 6.14768H10.7725C11.4495 6.14768 11.9987 5.59117 11.9987 4.90509V2.24259C11.9987 1.55651 11.4495 1 10.7725 1H7.09152C6.41454 1 5.86541 1.55651 5.86541 2.24259V4.1549C5.86541 5.13424 5.0821 5.92944 4.1144 5.92944H2.22611C1.54912 5.92944 1 6.48594 1 7.17203H1.00135Z"
    fill="#12FF80"
    stroke="black"
    stroke-width="0.5"
  />
  <mask
    id="path-2-outside-1_560_32"
    maskUnits="userSpaceOnUse"
    x="9.25015"
    y="8.83335"
    width="31"
    height="27"
    fill="black"
  >
    <rect fill="white" x="9.25015" y="8.83335" width="31" height="27" />
    <path
      d="M39.1835 12.3334C39.2502 12.3667 39.2502 12.4 39.2502 12.4334L37.2168 20.1C37.2168 20.1334 37.2168 20.1667 37.1835 20.1667L29.3835 22.9L35.0168 29.8C35.0502 29.8334 35.0502 29.8667 35.0168 29.9C35.0168 29.9 34.9835 29.9334 34.9502 29.9334H28.7835C28.7502 29.9334 28.7168 29.9334 28.7168 29.9L23.4835 24.9334L22.7502 25.2L20.5835 31.6667C20.5835 31.7 20.5502 31.7334 20.5168 31.7334L10.4502 35.2334C10.4168 35.2334 10.3835 35.2334 10.3835 35.2C10.3502 35.1667 10.3502 35.1334 10.3502 35.1L13.5168 28.9L19.2835 26.6667L20.3835 23.8334L32.3168 19.5334C32.4502 19.7 32.6835 19.8 32.9168 19.8C33.3168 19.8 33.6502 19.5 33.6502 19.0667C33.6502 18.8 33.4835 18.5667 33.2835 18.4334L33.9835 15.4667L29.4168 13.8667L26.5835 13.9334L24.6835 19.5L33.2168 16.5334L32.7835 18.3334C32.4502 18.4 32.1502 18.7 32.1502 19.0667L19.9835 23.4334L18.9168 26.3L13.8502 28.2334L23.4168 9.36669C23.4502 9.33335 23.4835 9.33335 23.5168 9.33335H30.6168L39.1835 12.3334Z"
    />
  </mask>
  <path
    d="M39.1835 12.3334C39.2502 12.3667 39.2502 12.4 39.2502 12.4334L37.2168 20.1C37.2168 20.1334 37.2168 20.1667 37.1835 20.1667L29.3835 22.9L35.0168 29.8C35.0502 29.8334 35.0502 29.8667 35.0168 29.9C35.0168 29.9 34.9835 29.9334 34.9502 29.9334H28.7835C28.7502 29.9334 28.7168 29.9334 28.7168 29.9L23.4835 24.9334L22.7502 25.2L20.5835 31.6667C20.5835 31.7 20.5502 31.7334 20.5168 31.7334L10.4502 35.2334C10.4168 35.2334 10.3835 35.2334 10.3835 35.2C10.3502 35.1667 10.3502 35.1334 10.3502 35.1L13.5168 28.9L19.2835 26.6667L20.3835 23.8334L32.3168 19.5334C32.4502 19.7 32.6835 19.8 32.9168 19.8C33.3168 19.8 33.6502 19.5 33.6502 19.0667C33.6502 18.8 33.4835 18.5667 33.2835 18.4334L33.9835 15.4667L29.4168 13.8667L26.5835 13.9334L24.6835 19.5L33.2168 16.5334L32.7835 18.3334C32.4502 18.4 32.1502 18.7 32.1502 19.0667L19.9835 23.4334L18.9168 26.3L13.8502 28.2334L23.4168 9.36669C23.4502 9.33335 23.4835 9.33335 23.5168 9.33335H30.6168L39.1835 12.3334Z"
    fill="#12FF80"
  />
  <path
    d="M39.1835 12.3334L39.4071 11.8861L39.3787 11.8719L39.3487 11.8615L39.1835 12.3334ZM39.2502 12.4334L39.7334 12.5615L39.7502 12.4985V12.4334H39.2502ZM37.2168 20.1L36.7335 19.9718L36.7168 20.0348V20.1H37.2168ZM37.1835 20.1667V19.6667H37.0984L37.0181 19.6948L37.1835 20.1667ZM29.3835 22.9L29.2181 22.4282L28.5453 22.6639L28.9962 23.2162L29.3835 22.9ZM35.0168 29.8L34.6295 30.1162L34.6454 30.1358L34.6633 30.1536L35.0168 29.8ZM35.0168 29.9L35.3704 30.2536L35.3704 30.2536L35.0168 29.9ZM28.7168 29.9H29.2168V29.6852L29.061 29.5373L28.7168 29.9ZM23.4835 24.9334L23.8277 24.5707L23.6033 24.3577L23.3126 24.4635L23.4835 24.9334ZM22.7502 25.2L22.5793 24.7301L22.3527 24.8125L22.2761 25.0412L22.7502 25.2ZM20.5835 31.6667L20.1094 31.5078L20.0835 31.5852V31.6667H20.5835ZM20.5168 31.7334V31.2334H20.4324L20.3526 31.2611L20.5168 31.7334ZM10.4502 35.2334V35.7334H10.5346L10.6144 35.7056L10.4502 35.2334ZM10.3835 35.2H10.8835V34.9929L10.737 34.8465L10.3835 35.2ZM10.3502 35.1L9.90487 34.8726L9.85015 34.9797V35.1H10.3502ZM13.5168 28.9L13.3362 28.4338L13.1583 28.5027L13.0715 28.6726L13.5168 28.9ZM19.2835 26.6667L19.4641 27.1329L19.6698 27.0533L19.7496 26.8476L19.2835 26.6667ZM20.3835 23.8334L20.214 23.363L19.9998 23.4401L19.9174 23.6524L20.3835 23.8334ZM32.3168 19.5334L32.7073 19.221L32.4838 18.9417L32.1473 19.063L32.3168 19.5334ZM33.2835 18.4334L32.7968 18.3185L32.7171 18.6567L33.0061 18.8494L33.2835 18.4334ZM33.9835 15.4667L34.4701 15.5815L34.5735 15.1436L34.1488 14.9948L33.9835 15.4667ZM29.4168 13.8667L29.5821 13.3948L29.4962 13.3647L29.4051 13.3668L29.4168 13.8667ZM26.5835 13.9334L26.5717 13.4335L26.223 13.4417L26.1103 13.7718L26.5835 13.9334ZM24.6835 19.5L24.2103 19.3385L23.879 20.309L24.8477 19.9723L24.6835 19.5ZM33.2168 16.5334L33.7029 16.6504L33.9172 15.7605L33.0526 16.0611L33.2168 16.5334ZM32.7835 18.3334L32.8815 18.8236L33.1948 18.761L33.2696 18.4504L32.7835 18.3334ZM32.1502 19.0667L32.3191 19.5373L32.6502 19.4185V19.0667H32.1502ZM19.9835 23.4334L19.8146 22.9627L19.5959 23.0412L19.5149 23.259L19.9835 23.4334ZM18.9168 26.3L19.0951 26.7672L19.3065 26.6865L19.3854 26.4744L18.9168 26.3ZM13.8502 28.2334L13.4042 28.0072L12.8186 29.1621L14.0284 28.7005L13.8502 28.2334ZM23.4168 9.36669L23.0633 9.01313L23.0069 9.06948L22.9709 9.14056L23.4168 9.36669ZM30.6168 9.33335L30.7821 8.86145L30.7018 8.83335H30.6168V9.33335ZM39.1835 12.3334L38.9599 12.7806C38.9366 12.7689 38.8515 12.7207 38.7946 12.607C38.7429 12.5035 38.7502 12.4041 38.7502 12.4334H39.2502H39.7502C39.7502 12.4293 39.7575 12.2966 39.689 12.1598C39.6155 12.0127 39.497 11.9311 39.4071 11.8861L39.1835 12.3334ZM39.2502 12.4334L38.7669 12.3052L36.7335 19.9718L37.2168 20.1L37.7001 20.2282L39.7334 12.5615L39.2502 12.4334ZM37.2168 20.1H36.7168C36.7168 20.1119 36.7166 20.1031 36.7174 20.0912C36.7181 20.0807 36.721 20.0397 36.7383 19.9877C36.7566 19.9328 36.7993 19.8413 36.8958 19.7663C36.9966 19.6879 37.1054 19.6667 37.1835 19.6667V20.1667V20.6667C37.2783 20.6667 37.3996 20.6413 37.5097 20.5556C37.6156 20.4733 37.6645 20.3714 37.687 20.304C37.7085 20.2395 37.7134 20.184 37.7152 20.1578C37.717 20.1303 37.7168 20.1048 37.7168 20.1H37.2168ZM37.1835 20.1667L37.0181 19.6948L29.2181 22.4282L29.3835 22.9L29.5488 23.3719L37.3488 20.6386L37.1835 20.1667ZM29.3835 22.9L28.9962 23.2162L34.6295 30.1162L35.0168 29.8L35.4041 29.4838L29.7708 22.5838L29.3835 22.9ZM35.0168 29.8L34.6633 30.1536C34.6254 30.1157 34.5418 30.0127 34.5418 29.85C34.5418 29.6873 34.6254 29.5843 34.6633 29.5465L35.0168 29.9L35.3704 30.2536C35.4415 30.1824 35.5418 30.0461 35.5418 29.85C35.5418 29.654 35.4415 29.5176 35.3704 29.4465L35.0168 29.8ZM35.0168 29.9C34.6633 29.5465 34.6634 29.5464 34.6634 29.5463C34.6635 29.5463 34.6636 29.5462 34.6636 29.5461C34.6637 29.546 34.6638 29.5459 34.664 29.5458C34.6642 29.5455 34.6644 29.5453 34.6647 29.5451C34.6651 29.5446 34.6656 29.5442 34.666 29.5437C34.6669 29.5428 34.6678 29.542 34.6687 29.5411C34.6705 29.5393 34.6723 29.5376 34.6742 29.5359C34.6778 29.5325 34.6816 29.5291 34.6857 29.5256C34.6934 29.519 34.7043 29.5102 34.7186 29.5007C34.7322 29.4916 34.7559 29.4771 34.7889 29.4639C34.821 29.4511 34.877 29.4334 34.9502 29.4334V29.9334V30.4334C35.1171 30.4334 35.2359 30.3576 35.2733 30.3327C35.3002 30.3148 35.3215 30.2977 35.3365 30.2849C35.3442 30.2782 35.3509 30.2722 35.3565 30.267C35.3593 30.2644 35.3618 30.2619 35.3641 30.2597C35.3653 30.2586 35.3664 30.2575 35.3674 30.2565C35.3679 30.256 35.3685 30.2555 35.3689 30.255C35.3692 30.2548 35.3694 30.2545 35.3697 30.2543C35.3698 30.2542 35.3699 30.254 35.37 30.2539C35.3701 30.2539 35.3702 30.2538 35.3702 30.2538C35.3703 30.2537 35.3704 30.2536 35.0168 29.9ZM34.9502 29.9334V29.4334H28.7835V29.9334V30.4334H34.9502V29.9334ZM28.7835 29.9334V29.4334C28.7716 29.4334 28.7804 29.4332 28.7923 29.4339C28.8028 29.4346 28.8438 29.4375 28.8958 29.4548C28.9507 29.4732 29.0422 29.5159 29.1172 29.6123C29.1956 29.7131 29.2168 29.8219 29.2168 29.9H28.7168H28.2168C28.2168 29.9948 28.2422 30.1161 28.3279 30.2263C28.4102 30.3321 28.5121 30.3811 28.5795 30.4035C28.644 30.425 28.6995 30.43 28.7257 30.4317C28.7532 30.4336 28.7787 30.4334 28.7835 30.4334V29.9334ZM28.7168 29.9L29.061 29.5373L23.8277 24.5707L23.4835 24.9334L23.1393 25.296L28.3726 30.2627L28.7168 29.9ZM23.4835 24.9334L23.3126 24.4635L22.5793 24.7301L22.7502 25.2L22.921 25.6699L23.6544 25.4032L23.4835 24.9334ZM22.7502 25.2L22.2761 25.0412L20.1094 31.5078L20.5835 31.6667L21.0576 31.8255L23.2242 25.3589L22.7502 25.2ZM20.5835 31.6667H20.0835C20.0835 31.5207 20.1514 31.4166 20.2091 31.359C20.2668 31.3013 20.3709 31.2334 20.5168 31.2334V31.7334V32.2334C20.6961 32.2334 20.8335 32.1487 20.9162 32.0661C20.9989 31.9834 21.0835 31.846 21.0835 31.6667H20.5835ZM20.5168 31.7334L20.3526 31.2611L10.286 34.7611L10.4502 35.2334L10.6144 35.7056L20.681 32.2056L20.5168 31.7334ZM10.4502 35.2334V34.7334C10.4383 34.7334 10.4471 34.7332 10.4589 34.7339C10.4695 34.7346 10.5104 34.7375 10.5624 34.7548C10.6174 34.7731 10.7089 34.8159 10.7839 34.9123C10.8623 35.0131 10.8835 35.1219 10.8835 35.2H10.3835H9.88349C9.88349 35.2948 9.90886 35.4161 9.99454 35.5263C10.0769 35.6321 10.1788 35.6811 10.2462 35.7035C10.3107 35.725 10.3662 35.73 10.3924 35.7317C10.4199 35.7336 10.4454 35.7334 10.4502 35.7334V35.2334ZM10.3835 35.2L10.737 34.8465C10.7858 34.8952 10.8221 34.9594 10.8394 35.0288C10.8525 35.0813 10.8502 35.126 10.8502 35.1H10.3502H9.85015C9.85015 35.1408 9.84115 35.3648 10.0299 35.5536L10.3835 35.2ZM10.3502 35.1L10.7954 35.3274L13.9621 29.1274L13.5168 28.9L13.0715 28.6726L9.90487 34.8726L10.3502 35.1ZM13.5168 28.9L13.6974 29.3663L19.4641 27.1329L19.2835 26.6667L19.1029 26.2004L13.3362 28.4338L13.5168 28.9ZM19.2835 26.6667L19.7496 26.8476L20.8496 24.0143L20.3835 23.8334L19.9174 23.6524L18.8174 26.4857L19.2835 26.6667ZM20.3835 23.8334L20.553 24.3037L32.4863 20.0037L32.3168 19.5334L32.1473 19.063L20.214 23.363L20.3835 23.8334ZM32.3168 19.5334L31.9264 19.8457C32.1696 20.1497 32.5572 20.3 32.9168 20.3V19.8V19.3C32.8097 19.3 32.7308 19.2504 32.7073 19.221L32.3168 19.5334ZM32.9168 19.8V20.3C33.5779 20.3 34.1502 19.791 34.1502 19.0667H33.6502H33.1502C33.1502 19.1495 33.1206 19.2028 33.0856 19.2367C33.0482 19.2729 32.9908 19.3 32.9168 19.3V19.8ZM33.6502 19.0667H34.1502C34.1502 18.5899 33.8599 18.2167 33.5608 18.0173L33.2835 18.4334L33.0061 18.8494C33.0498 18.8785 33.0894 18.9188 33.116 18.9621C33.1418 19.004 33.1502 19.0394 33.1502 19.0667H33.6502ZM33.2835 18.4334L33.7701 18.5482L34.4701 15.5815L33.9835 15.4667L33.4968 15.3519L32.7968 18.3185L33.2835 18.4334ZM33.9835 15.4667L34.1488 14.9948L29.5821 13.3948L29.4168 13.8667L29.2515 14.3386L33.8182 15.9386L33.9835 15.4667ZM29.4168 13.8667L29.4051 13.3668L26.5717 13.4335L26.5835 13.9334L26.5952 14.4332L29.4286 14.3665L29.4168 13.8667ZM26.5835 13.9334L26.1103 13.7718L24.2103 19.3385L24.6835 19.5L25.1567 19.6615L27.0567 14.0949L26.5835 13.9334ZM24.6835 19.5L24.8477 19.9723L33.381 17.0056L33.2168 16.5334L33.0526 16.0611L24.5193 19.0277L24.6835 19.5ZM33.2168 16.5334L32.7307 16.4163L32.2974 18.2163L32.7835 18.3334L33.2696 18.4504L33.7029 16.6504L33.2168 16.5334ZM32.7835 18.3334L32.6854 17.8431C32.16 17.9481 31.6502 18.4216 31.6502 19.0667H32.1502H32.6502C32.6502 19.024 32.6672 18.9732 32.7129 18.9227C32.7604 18.87 32.8243 18.8351 32.8815 18.8236L32.7835 18.3334ZM32.1502 19.0667L31.9813 18.5961L19.8146 22.9627L19.9835 23.4334L20.1524 23.904L32.3191 19.5373L32.1502 19.0667ZM19.9835 23.4334L19.5149 23.259L18.4482 26.1257L18.9168 26.3L19.3854 26.4744L20.4521 23.6077L19.9835 23.4334ZM18.9168 26.3L18.7386 25.8329L13.6719 27.7662L13.8502 28.2334L14.0284 28.7005L19.0951 26.7672L18.9168 26.3ZM13.8502 28.2334L14.2961 28.4595L23.8628 9.59281L23.4168 9.36669L22.9709 9.14056L13.4042 28.0072L13.8502 28.2334ZM23.4168 9.36669L23.7704 9.72024C23.7216 9.76902 23.6574 9.80525 23.5881 9.82259C23.5355 9.83573 23.4909 9.83335 23.5168 9.83335V9.33335V8.83335C23.4761 8.83335 23.2521 8.82435 23.0633 9.01313L23.4168 9.36669ZM23.5168 9.33335V9.83335H30.6168V9.33335V8.83335H23.5168V9.33335ZM30.6168 9.33335L30.4516 9.80525L39.0182 12.8053L39.1835 12.3334L39.3487 11.8615L30.7821 8.86145L30.6168 9.33335Z"
    fill="black"
    mask="url(#path-2-outside-1_560_32)"
  />
  <path
    d="M51.3983 35.4785L51.3983 7.52149C51.3983 6.85214 50.8492 6.3092 50.1722 6.3092L48.2839 6.3092C47.3175 6.3092 46.5329 5.53473 46.5329 4.57795L46.5329 2.71228C46.5329 2.04293 45.9837 1.5 45.3068 1.5L41.6257 1.5C40.9488 1.5 40.3996 2.04293 40.3996 2.71228L40.3996 5.31117C40.3996 5.98052 40.9488 6.52345 41.6257 6.52345L44.5665 6.52345C45.5329 6.52345 46.3175 7.29793 46.3175 8.25471L46.3175 34.7466C46.3175 35.7021 45.5342 36.4779 44.5665 36.4779L41.6271 36.4779C40.9501 36.4779 40.401 37.0208 40.401 37.6902L40.401 40.2877C40.401 40.9571 40.9501 41.5 41.6271 41.5L45.3081 41.5C45.9851 41.5 46.5342 40.9571 46.5342 40.2877L46.5342 38.4221C46.5342 37.4666 47.3175 36.6908 48.2852 36.6908L50.1735 36.6908C50.8505 36.6908 51.3996 36.1479 51.3996 35.4785L51.3983 35.4785Z"
    fill="#12FF80"
    stroke="black"
    stroke-width="0.5"
  />
</svg>
